<?xml version="1.0" standalone="no"?>
<!DOCTYPE svg PUBLIC "-//W3C//DTD SVG 20010904//EN"
 "http://www.w3.org/TR/2001/REC-SVG-20010904/DTD/svg10.dtd">
<svg version="1.0" xmlns="http://www.w3.org/2000/svg"
 width="128.000000pt" height="128.000000pt" viewBox="0 0 128.000000 128.000000"
 preserveAspectRatio="xMidYMid meet">
<metadata>
Created by potrace 1.13, written by Peter Selinger 2001-2015
</metadata>
<g transform="translate(0.000000,128.000000) scale(0.100000,-0.100000)"
fill="#000000" stroke="none">
<path d="M516 1228 c-9 -21 -16 -53 -16 -72 0 -29 -5 -36 -30 -44 -27 -10 -28
-13 -20 -42 26 -90 126 -198 230 -247 57 -27 59 -29 59 -68 1 -61 -26 -251
-45 -313 -8 -31 -36 -95 -60 -142 -37 -70 -47 -101 -57 -178 l-12 -93 -24 25
-24 25 32 71 c28 63 41 113 25 97 -3 -3 -17 -2 -29 3 -16 6 -25 5 -29 -3 -4
-7 -4 7 -1 31 3 24 24 82 48 130 37 78 42 95 42 159 0 57 -4 77 -21 100 -27
36 -67 55 -117 57 -33 1 -44 -5 -68 -34 -36 -43 -38 -88 -6 -118 28 -26 59
-28 82 -6 23 23 13 39 -24 36 -28 -2 -31 0 -31 28 0 21 8 35 26 46 35 24 74 9
97 -36 27 -53 18 -113 -36 -227 -51 -107 -66 -162 -67 -236 0 -50 -4 -56 -108
-163 -11 -12 -2 -14 61 -14 60 0 76 3 81 16 6 16 8 16 24 0 16 -14 50 -16 249
-16 l230 0 -13 63 c-12 59 -36 144 -51 177 -3 8 -7 17 -7 20 -4 18 -30 70 -33
66 -3 -2 1 -15 7 -28 11 -22 11 -22 -9 2 -49 59 -86 207 -98 388 l-6 102 64 0
c76 0 180 34 238 77 30 22 37 33 29 41 -8 8 -2 22 25 52 55 60 51 65 -55 65
-85 0 -97 2 -133 27 -59 40 -147 67 -242 75 -79 6 -86 8 -108 37 -13 18 -31
47 -39 66 l-15 35 -15 -37z m136 -159 c46 -23 96 -85 80 -101 -5 -5 -31 -13
-55 -15 -36 -4 -54 -1 -81 16 -40 25 -76 77 -76 110 0 21 3 22 48 15 26 -4 64
-15 84 -25z m356 -99 c38 -17 42 -22 32 -40 -34 -63 -148 -74 -207 -18 -31 29
-29 46 10 63 45 20 115 18 165 -5z"/>
<path d="M0 605 c0 -34 4 -52 13 -54 6 -1 65 -4 130 -7 l117 -6 -9 25 c-7 18
-7 27 2 30 7 2 -17 9 -53 15 -36 7 -95 20 -132 31 l-68 18 0 -52z"/>
<path d="M1043 558 c-1 -13 -7 -24 -13 -26 -6 -2 23 -27 64 -55 41 -29 100
-76 130 -105 l56 -54 0 74 0 74 -72 42 c-56 32 -147 72 -162 72 -1 0 -3 -10
-3 -22z"/>
<path d="M210 434 c-30 -7 -90 -16 -133 -20 l-77 -7 0 -53 0 -52 33 4 c59 9
181 45 239 71 50 22 55 27 43 40 -8 8 -15 19 -15 24 0 12 -22 10 -90 -7z"/>
<path d="M973 403 l-21 -27 38 -55 c49 -74 88 -151 116 -234 21 -61 21 -67 6
-68 -9 0 -12 -3 -5 -5 30 -13 136 67 126 94 -4 10 -2 13 5 8 13 -8 26 10 17
24 -5 8 -11 8 -20 0 -10 -8 -20 1 -43 42 -38 68 -110 163 -159 210 l-38 37
-22 -26z"/>
<path d="M330 294 c-84 -58 -160 -97 -235 -120 -33 -10 -64 -21 -69 -25 -12
-11 30 -75 67 -101 17 -12 27 -17 23 -10 -9 15 -5 15 31 2 25 -9 26 -9 10 4
-16 12 -11 18 58 61 62 38 270 222 228 200 -15 -7 -56 18 -46 28 15 15 -6 3
-67 -39z"/>
</g>
</svg>
